/* XPM */
static char *collectible1678876125[] = {
/* columns rows colors chars-per-pixel */
"32 32 219 2 ",
"   c None",
".  c black",
"X  c #0D0B00",
"o  c #110F06",
"O  c #191500",
"+  c #1B1700",
"@  c #1C1700",
"#  c #1C1801",
"$  c #151308",
"%  c #111111",
"&  c #151515",
"*  c #211B00",
"=  c #211B01",
"-  c #251F01",
";  c #201C0B",
":  c #262001",
">  c #292201",
",  c #2B2501",
"<  c #342C01",
"1  c #3B3201",
"2  c #3D3301",
"3  c #3F3501",
"4  c #3D3402",
"5  c #312C13",
"6  c #322D13",
"7  c #202020",
"8  c gray15",
"9  c gray21",
"0  c #393937",
"q  c #403601",
"w  c #413601",
"e  c #463A00",
"r  c #473B00",
"t  c #534500",
"y  c #534502",
"u  c #544702",
"i  c #534604",
"p  c #4F471B",
"a  c #514F44",
"s  c #998000",
"d  c #9A8100",
"f  c #9E8505",
"g  c #A08600",
"h  c #A18600",
"j  c #A28800",
"k  c #A48A00",
"l  c #A58A00",
"z  c #A48A01",
"x  c #A68B03",
"c  c #A78C00",
"v  c #A38804",
"b  c #A88C00",
"n  c #A98D00",
"m  c #AA8E00",
"M  c #AB8F00",
"N  c #AB8F03",
"B  c #A98E04",
"V  c #A48B0B",
"C  c #A88F0D",
"Z  c #AD9000",
"A  c #AC9002",
"S  c #AE9202",
"D  c #AC9004",
"F  c #AE9204",
"G  c #AD930C",
"H  c #B09200",
"J  c #B09300",
"K  c #B39500",
"L  c #B69803",
"P  c #B89A00",
"I  c #BF9F00",
"U  c #BD9E04",
"Y  c #BE9F04",
"T  c #B39709",
"R  c #B3970E",
"E  c #B4980B",
"W  c #AB9211",
"Q  c #AC9212",
"!  c #AE9410",
"~  c #B29916",
"^  c #B49A19",
"/  c #B89E1A",
"(  c #BFA004",
")  c #C2A200",
"_  c #C3A200",
"`  c #C1A203",
"'  c #C2A203",
"]  c #C3A203",
"[  c #C2A303",
"{  c #C3A303",
"}  c #C5A400",
"|  c #C6A500",
" . c #C7A600",
".. c #C4A402",
"X. c #C4A403",
"o. c #C5A403",
"O. c #C7A603",
"+. c #C1A104",
"@. c #C9A700",
"#. c #C8A704",
"$. c #CAA800",
"%. c #CAA900",
"&. c #CBA900",
"*. c #CBA901",
"=. c #CCAA00",
"-. c #CDAA00",
";. c #CEAB00",
":. c #CFAD01",
">. c #CEAC03",
",. c #CDAB06",
"<. c #CDAB08",
"1. c #D1AE00",
"2. c #D2AF00",
"3. c #D1AF07",
"4. c #D3B000",
"5. c #D5B100",
"6. c #D6B200",
"7. c #D7B300",
"8. c #D1B007",
"9. c #D7B404",
"0. c #D8B300",
"q. c #DBB700",
"w. c #DCB700",
"e. c #DEB800",
"r. c #DEB900",
"t. c #DFBA00",
"y. c #D3B009",
"u. c #DAB70D",
"i. c #D7B717",
"p. c #D9B713",
"a. c #DAB916",
"s. c #DEBC15",
"d. c #DFBD16",
"f. c #E0BB00",
"g. c #E1BB00",
"h. c #E1BC00",
"j. c #E2BD00",
"k. c #E3BD00",
"l. c #E3BE00",
"z. c #E5BF00",
"x. c #E6C000",
"c. c #E7C100",
"v. c #E9C300",
"b. c #EAC300",
"n. c #EBC400",
"m. c #EBC500",
"M. c #ECC500",
"N. c #EDC600",
"B. c #E7C20B",
"V. c #ECC609",
"C. c #F1CA00",
"Z. c #F5CD00",
"A. c #F5CD01",
"S. c #F6CE00",
"D. c #F7CF00",
"F. c #F6CF07",
"G. c #F8CF00",
"H. c #F5CE0A",
"J. c #FAD100",
"K. c #FBD200",
"L. c #FDD300",
"P. c #FDD400",
"I. c #FDD401",
"U. c #FED400",
"Y. c #FFD500",
"T. c #FFD501",
"R. c #F8D005",
"E. c #FFD605",
"W. c #FCD407",
"Q. c #FFD609",
"!. c #F2CD12",
"~. c #F5CF11",
"^. c #FBD513",
"/. c #FED712",
"(. c #FDD719",
"). c #DFC43F",
"_. c #E1C120",
"`. c #EDCF3F",
"'. c #F8D93F",
"]. c #C2AE4A",
"[. c #D5BD44",
"{. c #DEC542",
"}. c #DEC543",
"|. c #D9C353",
" X c #E9CD40",
".X c #E3CA48",
"XX c #E7CD4B",
"oX c #EFD249",
"OX c #F3D646",
"+X c #FBDC43",
"@X c #FCDD41",
"#X c #F1D449",
"$X c #F3D649",
"%X c #F3D74A",
"&X c #F6D849",
"*X c #F4D84F",
"=X c #FDDF4B",
"-X c #E5CE5C",
";X c #F5D952",
":X c #F7DB52",
">X c #F7DC52",
",X c #F3D958",
"<X c #F4D95A",
"1X c #FCE160",
"2X c #FCE260",
"3X c #FAE36D",
"4X c #FCE46E",
"5X c #FCE473",
"6X c #FCE575",
"7X c #F7E27D",
"8X c #F8E47F",
"9X c #C0C0C0",
"0X c #DEDAC7",
"qX c #D4D2CB",
"wX c #DBD9CF",
"eX c #D8D8D8",
"rX c #E0DBC2",
"tX c #E8E6DE",
"yX c #FBF5D8",
/* pixels */
"                                                                ",
"                                                                ",
"                                                                ",
"                                                                ",
"                                                                ",
"                        ; * * @ + # +                           ",
"                    o o [.V.N.$.@.| L , X                       ",
"                  $ ].|.^.U.U.J.G.w.4.N v >                     ",
"                . wX5X1XH.j s s s s @.5.] U #                   ",
"              & wX7X<X/ S ,.y.3.y.2.S b } ] N 4                 ",
"            % 9X5X<X~ #.y.#X:X:X*Xu.2.&.H | ` N -               ",
"            % eX1X/ #.`.oX^ W Q W v k.w.&.S &.` :               ",
"          7 qX8X,XG y.&X~.z s N.C.b g N.f.M &.} F 1             ",
"          7 tX6XV <.$X(.Z.z s Z.J.b s m.k.2.b } ` 4             ",
"          7 tX6Xs 3.:X/.Z.z s Z.L.b s N.J.w.g } ` 4             ",
"          7 tX6Xs 3.:X/.Z.z s g g s f.U.U.f.z | ` 4             ",
"          7 tX6Xs 3.:X/.Z.z s c.N.N.J.U.U.t.j | ` 4             ",
"          7 tX6Xs 3.:X/.G.z s Z.U.U.U.U.v.0.j | ` 4             ",
"          7 tX6X.XT a.+XF.z s G.U.U.U.U.k.K ) X.U 4             ",
"            0 0X1X! :.$XOXC g F.E.U.U.j.0.b &.` q               ",
"            % eX1X{.T i._.{.{.+X@XB.j.5.P ) | ( :               ",
"              9 yX3XXXR M a.d.d.d.9.K b I { U i                 ",
"                8 rX4X!.v.b j j j j ) :.4.{ <                   ",
"                  a -X=XE.c.k.j.j.$.4.| { u                     ",
"                    5 5  XQ.U.j.t.0.#.q :                       ",
"                        p i i r e r 4                           ",
"                                                                ",
"                                                                ",
"                                                                ",
"                                                                ",
"                                                                ",
"                                                                "
};
