/* XPM */
static char *milk21679998173[] = {
/* columns rows colors chars-per-pixel */
"32 32 45 1 ",
"  c black",
". c #665934",
"X c #00004E",
"o c #C33301",
"O c #FF5D25",
"+ c #9C8D64",
"@ c #FF855B",
"# c #FFF07F",
"$ c #0032B7",
"% c #3249B1",
"& c #6F6187",
"* c #2570FF",
"= c #3D77FF",
"- c #6783FF",
"; c #B6AE9D",
": c #B9AE9C",
"> c #B9B19F",
", c #B7B0A1",
"< c #BCB5A5",
"1 c #BFB8A7",
"2 c #BDB7A8",
"3 c #BEB9AA",
"4 c #BFBCB0",
"5 c #D8BE8B",
"6 c #C0B7A5",
"7 c #C0B8A7",
"8 c #C2BBAC",
"9 c #C3BEB1",
"0 c #C6C1B4",
"q c #C8C4B7",
"w c #C6C4B9",
"e c #C9C5BA",
"r c #CCC9BD",
"t c #EAD8A6",
"y c #F0E3BE",
"u c #9DB7EA",
"i c #B2C5F0",
"p c #CDCAC0",
"a c #EDE8C1",
"s c #F6E9C4",
"d c #F8F0D2",
"f c #FFF6DF",
"g c #FFF9E7",
"h c #FFFCF6",
"j c white",
/* pixels */
"<222232,:<892,<88<78688qw088818<",
",2222<<>:;>><;2288<7608qq0882232",
"82222,2;::<,2XXXX88<<89qq088244<",
"8<23422<:>:<XO@OOX7<6689q0782433",
"0223322369<<XooooX2<>78777<<<w38",
"4323243312 .tfffft. <>177<<<283w",
"42<22348< tasssssssa .77<<8<8839",
"33223098.tssssssfhffy5 8<68<8www",
"0332200 tssssssfjhhhffy 88880qqq",
"w92<<8q.sssssssjhhy5hfff.8888qwq",
"87<,<8 ahjfsssfhhy55+hff <789w90",
"087,8< aghhhjjjhh5555+hyy 68889w",
"078788 fghhhhgffh5555+hyy >;88qr",
"088809 fghhhhgffhy555+fyy <<888w",
"0w0qq0 fghhhhgfffhyyy5faa <<8009",
"088rqw fu$$+ygfffghyy5faa >78qq0",
"w99pe9 f$=--%+yfffgjyyydd 8800q0",
"w9wwe9 f$=---=$ygffgjhhff 29800q",
"w9wpw4 f$##-#=i$yffdhdfff 89080q",
"93wpww f$#-###*#$yffhdfff 988880",
"33wwp9 f$#i#-i##*$yfhdffg 888868",
"wwww90 g$=---=*ii*+fhdfff 808888",
"3ew4w9 f$i-ij=****$fhdfff <88288",
"20w3w9 f&ji--=****$fhdfda <8822<",
"2982w9 f+jjjjji*i*$fhadaa <<722<",
"23<689 yg&ijjjjiji&fdaayy <<784<",
"<>><<8q.yh+&$$$$$&5daasy.81<323<",
"<8<><<0w .yhhgfffddaay. 988882<3",
"728,678887            q0080928<<",
"787>6887>>8988<:<12888998088889,",
"<881882>>62433<<77886<8ww088803>",
"><<1<8<<>7833,<<878<<788q028382;"
};
