/* XPM */
static char *exit1679996918[] = {
/* columns rows colors chars-per-pixel */
"32 32 84 1 ",
"  c #0D643D",
". c #10653F",
"X c #0F6740",
"o c #0F6840",
"O c #116740",
"+ c #126942",
"@ c #1C6D49",
"# c #1E704C",
"$ c #23724E",
"% c #267451",
"& c #2A7755",
"* c #2B7856",
"= c #357C5D",
"- c #3A7D5F",
"; c #3A7F61",
": c #3C8163",
"> c #408366",
", c #448769",
"< c #46896B",
"1 c #48886B",
"2 c #518A6F",
"3 c #4E8E72",
"4 c #538E74",
"5 c #569177",
"6 c #589276",
"7 c #5A947A",
"8 c #5D997E",
"9 c #62967F",
"0 c #629780",
"q c #649982",
"w c #699C85",
"e c #6D9D89",
"r c #719F8B",
"t c #6EA18A",
"y c #74A28E",
"u c #77A591",
"i c #7AA693",
"p c #7CA895",
"a c #81A997",
"s c #84AB9A",
"d c #89AF9E",
"f c #94B5A6",
"g c #96B6AA",
"h c #97B9AA",
"j c #9BBAAD",
"k c #A2BEB2",
"l c #A5C1B4",
"z c #AAC2B7",
"x c #AAC4BA",
"c c #B0C7BD",
"v c #B2C8BE",
"b c #B4CAC1",
"n c #BACDC5",
"m c #BCD0C7",
"M c #BDD0C8",
"N c #C5D3CD",
"B c #C9D5CF",
"V c #C9D7D1",
"C c #CCD9D3",
"Z c #D3DDD8",
"A c #DADEDD",
"S c #E5DDDD",
"D c #DCE1DE",
"F c #E5E6DF",
"G c #EDE7DC",
"H c #EDE8DF",
"J c #F1EADF",
"K c #DDE2E3",
"L c #E5E5E5",
"P c #EAE5E5",
"I c #E5E8E6",
"U c #ECEBE4",
"Y c #E3E6EA",
"T c #E5E9EB",
"R c #ECECEC",
"E c #F3EDE4",
"W c #F0EDE8",
"Q c #EFF0EE",
"! c #F3F2ED",
"~ c #ECEEF0",
"^ c #EEF0F2",
"/ c #F3F3F3",
"( c #F8F8F6",
") c #F9F9F9",
/* pixels */
"//!(/!EJUEW)(///))((//)/)(((/((!",
"//RRURUGG/W(///~/(////(////^^QUQ",
"//n7667668707787007778880877p^UI",
"RTg     =pupiiiiipiiiipy@   =K^F",
"YKjX    0~RRRRRIT^clVTRL$  X:KT^",
"YKjXo   q/RRRRRRQ^=oiQQI% XX=YKR",
"LTgXoo  qWI/RRRRRQ:+pRQI%oXX;Y/^",
"SPkoooo q/R/RR/Q^/DDI^^T*oXX:~)(",
"PSkOOO  q/P/y>,>11,,jW/I*oXX:///",
"SPkX    0RAu$   XO  ;dRK%X  :^//",
"P/kO    0Yd@4q> XXX X4WI%XX :///",
"//kX    0Z  bCy X X*%:Mv@X  :///",
"R/kOX   0ZOObeO XXXjp+++o   :///",
"//kOOOO q/R/RyOOX+C~Rx++OOOO:))/",
"R/kOX   0RRRRwX XoVRRDmb%   ://~",
"RRk  X  9RLRIw  OONPIIRK%   ;//R",
"RRk     0PDILq    iBLLLA$   =^/W",
"RWk.  *>aRLRPq +>  jPIRK@   =W/^",
"))kO  NRR/P/Ryo:RO kR//I%.O >)))",
"RRj @NAr      .:L+  uIPK$.  ;^^R",
"R/k.@V9% X X. 6NRN% iRRL%   ;///",
"^/k.@VkffgfjgfbRIR=XiPRK%.. >///",
"^/k.+raskRLPYRPILRp*1kPD%   :///",
"^/k.    qRLRPYRYPRP5 3RK$  .:///",
"//k+O   0RPRRRRRRRRw%0RL$   ;()/",
"!/k+OX  q/R/RRRRWRRTYP/L%.X ;/(W",
"//k+XO eA~P~RRRPR~1*dRZ&OO X:(/!",
"^!k+  dVP/TWRRRRR3+uCn,XX   :!UR",
"^/kXX.9rririyruryX 4y4O XXXX;~RL",
"^Tk4442577677777774777777553eK!L",
"LKYKY~PR^////^/~/(////////YKYKTQ",
"~YKTT~)/))/))/)())())))))/^TYTT^"
};
