/* XPM */
static char *exit1678404497[] = {
/* columns rows colors chars-per-pixel */
"32 32 7 1 ",
"  c None",
". c #F52C2C",
"X c #FF643D",
"o c #FF954F",
"O c #FFBE5C",
"+ c #FFE375",
"@ c #FCFFA3",
/* pixels */
"              .XX.              ",
"             .XXXX.             ",
"             .XXXX.             ",
"             .XXXXX             ",
"            o@O@O@O+            ",
"            +O@O@O@o            ",
"            o@O@O@O@            ",
"           o@O@O@O@O+           ",
"           +O@O@O@O@O           ",
"          +O@O@O@O@O@o          ",
"          .XO@O@O@O@X.          ",
"          .XXXXXXXXXX.          ",
"          .XXXXXXXXXXX          ",
"         .XXXXXXXXXXXX.         ",
"         .XXXXXXXXXXXXX         ",
"         oXXXXXXXXXXXX@         ",
"        o+O@XXXXXXXXO@O+        ",
"        +o@O@O@O@O@O@O@O        ",
"      ooo@O@O@O@O@O@O@O@XX      ",
"     ooo+O@O@O@O@O@O@O@oXXX     ",
"     oooX@O@O@O@O@O@O@O.XXX     ",
"    ooo.XX@O@O@O@O@O@OX..XXX    ",
"    ooo.XXXXO@O@O@O@XXX..XXX    ",
"   oooo.XXXXXXXXXXXXXXX..XXXX   ",
"   oooo.XXXXXXXXXXXXXX...Xooo   ",
"   ooooo.XXXXXXXXXXXX...ooooo   ",
"  ooooooooo.XXXXXXX..ooooooooo  ",
"  oooooooooooooooooooooooooooo  ",
"  oooooooooooooooooooooooooooo  ",
"  OOOOOOOOOOOOOOOOOOOOOOOOOOOO  ",
"  XXXXXXXXXXXXXXXXXXXXXXXXXXXX  ",
"                                "
};
