/* XPM */
static char *plasterxpm1679997061[] = {
/* columns rows colors chars-per-pixel */
"32 32 19 1 ",
"  c #B6AE9C",
". c #B9AE9B",
"X c #BAB19F",
"o c #B7B0A1",
"O c #BCB5A4",
"+ c #BFB8A7",
"@ c #BDB7A8",
"# c #BEB9AA",
"$ c #BFBCB0",
"% c #C0B7A5",
"& c #C0B8A7",
"* c #C2BBAC",
"= c #C3BEB1",
"- c #C6C1B4",
"; c #C8C4B6",
": c #C6C4B9",
"> c #C9C5BA",
", c #CCC8BC",
"< c #CDCAC0",
/* pixels */
"O@@@@#@o O*-#oo*&O&*%**;--***@*O",
"o@@@@O@ ..X @oO*-*O&%-*>;;**@@#@",
"*@@@@o@ . XO@XOO**&OO*=;>-**@$#@",
"#@@#$@@O.X O@XoO***O%%*=--@*@#$#",
"=@@##@@#%*O&&XOXO%@OX%*&@&%O@-=#",
"$#@#@$##@@*O@OXOO&*OO.&%&OOO@*$-",
"$#O@@$$#O%&X&OOOX&&&@.&%O+*O**#$",
"$#@@#-#-&%XX%%OXX&******OO*@*-::",
"$*#@@--*&OXXO*%XX**@***O****->;;",
":=@@&*;-@OXXO**O**-OOOoOO****;->",
"-@Oo@&--;O&%O**O*****ooO@O%*-=--",
"-&@X*O*-*%&*O***=**@O.O&*O&&**-:",
"-+*O**--=%O@oO&*-=*OXXo@OOX **;,",
"**-*--:-***@X**;-**XXXOoXOOO*@--",
"--------==*OO*;;=-**%OOXX%OO*---",
"--*,;-:::*-=-;--*==*&O..XXXO-;>*",
":=-<<$-::>>*---**-;;-XXXX+&*----",
"-$:::$-::-;**-@O*--*-OXO*&@----;",
":=:<:$=::@@O@*&.*@*---&+-***-&-;",
"$$:<::--***&&@&+OX*-:***-&-*&*--",
"#*::,-$=--**&&+OoXO---**;@*-**@*",
":--:--$@***--*O+O%**---**&*-****",
"#::=:=-&***-*@%*@*@**;-*@%&*&@**",
"#::#:$*----*&O@**&X*;;;&XO@@*@@@",
"@=*O-#---:-*&o&*&+%*;,>-*XO@&*@@",
"@@@&=-:$-*;**O&*-%%*;,,*-&OO@&#O",
"@XXO@*>----**O&&X&%*-;>-*&&O#@#@",
"O@OXOO---*---*oXXO%*--,***-&#@O@",
"@@&X%&**&&--*@O.X&****>--*--#@@O",
"+-&X%*@&X+****@X+&&*&*--*-*#-*-X",
"X**@***o.X*#@@OO&@**+O&---#*#-@ ",
"X@O@@*OO.+-@@@OO*&*OX+--;-@-$## "
};
