/* XPM */
static char *floor1678876125[] = {
/* columns rows colors chars-per-pixel */
"32 32 234 2 ",
"   c #074E3C",
".  c #104F3F",
"X  c #09533D",
"o  c #105C3E",
"O  c #1E4D40",
"+  c #0D5C46",
"@  c #075E46",
"#  c #115341",
"$  c #1C5D4C",
"%  c #195947",
"&  c #255B4D",
"*  c #285E51",
"=  c #0C634D",
"-  c #0B6A4E",
";  c #1A644C",
":  c #0C6C52",
">  c #086A58",
",  c #156351",
"<  c #1A6C53",
"1  c #146E5A",
"2  c #1D6D59",
"3  c #186953",
"4  c #0E755B",
"5  c #0C7758",
"6  c #14735A",
"7  c #1C745B",
"8  c #1C7B5D",
"9  c #167859",
"0  c #23664F",
"q  c #246453",
"w  c #2C6456",
"e  c #236D56",
"r  c #246B5A",
"t  c #296D5A",
"y  c #2E6758",
"u  c #356C5C",
"i  c #306253",
"p  c #22735C",
"a  c #2B735D",
"s  c #22795A",
"d  c #287256",
"f  c #36705F",
"g  c #1C7562",
"h  c #127B64",
"j  c #1C7B62",
"k  c #1A7E69",
"l  c #167161",
"z  c #237664",
"x  c #2C7461",
"c  c #237B64",
"v  c #2D7B64",
"b  c #247D6A",
"n  c #2B7C69",
"m  c #337564",
"M  c #327F67",
"N  c #317768",
"B  c #327D6B",
"V  c #3A7B69",
"C  c #3B7566",
"Z  c #3D7B70",
"A  c #396F62",
"S  c #407B6E",
"D  c #437768",
"F  c #497C71",
"G  c #12805D",
"H  c #0E8964",
"J  c #128162",
"K  c #1B8565",
"L  c #1D8A65",
"P  c #16876C",
"I  c #1B846B",
"U  c #1B8A6B",
"Y  c #118C6A",
"T  c #0D9E6E",
"R  c #13936C",
"E  c #17966C",
"W  c #1E8C73",
"Q  c #1F8770",
"!  c #1E9572",
"~  c #1D9A78",
"^  c #298265",
"/  c #23836C",
"(  c #2B846C",
")  c #238C6C",
"_  c #2B8B6C",
"`  c #258A66",
"'  c #34826B",
"]  c #3A886D",
"[  c #22946C",
"{  c #2B936F",
"}  c #2C8572",
"|  c #248D73",
" . c #2C8C74",
".. c #2F8D7A",
"X. c #3B8573",
"o. c #338B74",
"O. c #3B8C74",
"+. c #3C8C79",
"@. c #338875",
"#. c #249274",
"$. c #2B9375",
"%. c #239B74",
"&. c #259478",
"*. c #2B937C",
"=. c #2B9C7C",
"-. c #289C79",
";. c #359276",
":. c #3C9274",
">. c #339A76",
",. c #33947B",
"<. c #3C957C",
"1. c #339B7C",
"2. c #3A9C7D",
"3. c #3C9977",
"4. c #1FA679",
"5. c #25A37E",
"6. c #2CA57D",
"7. c #28A67B",
"8. c #36A37C",
"9. c #438473",
"0. c #428B75",
"q. c #418779",
"w. c #458D7A",
"e. c #498D7A",
"r. c #4C8575",
"t. c #44937B",
"y. c #459A7C",
"u. c #499A7F",
"i. c #4B917C",
"p. c #54947B",
"a. c #40A27E",
"s. c #2D9B81",
"d. c #2E9B86",
"f. c #3C9380",
"g. c #349C84",
"h. c #3C9D82",
"j. c #359781",
"k. c #2DA485",
"l. c #2CAA85",
"z. c #27A986",
"x. c #35A484",
"c. c #3BA383",
"v. c #34AC85",
"b. c #3DA986",
"n. c #36A689",
"m. c #3BA58C",
"M. c #34AC8A",
"N. c #3DAB8A",
"B. c #2AB688",
"V. c #35B38A",
"C. c #3DB58B",
"Z. c #3DAD91",
"A. c #31AE91",
"S. c #3BB394",
"D. c #34B892",
"F. c #3EB799",
"G. c #538C80",
"H. c #429683",
"J. c #4C9582",
"K. c #439D84",
"L. c #4C9C83",
"P. c #459B88",
"I. c #4A9B89",
"U. c #529684",
"Y. c #5A9783",
"T. c #529C83",
"R. c #57988C",
"E. c #448B80",
"W. c #44A484",
"Q. c #4CA384",
"!. c #43AA86",
"~. c #44A48C",
"^. c #4CA38B",
"/. c #44AC8D",
"(. c #4AAB8C",
"). c #52A48B",
"_. c #54AC8D",
"`. c #57A98A",
"'. c #45B18A",
"]. c #4AB38E",
"[. c #4AB88F",
"{. c #56B08E",
"}. c #45AD91",
"|. c #4CAD93",
" X c #4CA292",
".X c #5AAD93",
"XX c #53AA94",
"oX c #45B593",
"OX c #4DB595",
"+X c #44BB95",
"@X c #4DBA94",
"#X c #4BBC9C",
"$X c #45B89C",
"%X c #53B493",
"&X c #5CB393",
"*X c #53BC9B",
"=X c #5ABB9C",
"-X c #55BB97",
";X c #63B797",
":X c #64A994",
">X c #4ABDA2",
",X c #47BAA3",
"<X c #5EBDA2",
"1X c #64BBA5",
"2X c #38C398",
"3X c #3FD9A6",
"4X c #44C299",
"5X c #4BCA9D",
"6X c #44C89C",
"7X c #55C19A",
"8X c #56C99F",
"9X c #44D19F",
"0X c #61C19D",
"qX c #4CC3A2",
"wX c #48CCA6",
"eX c #59C2A1",
"rX c #57CDAB",
"tX c #56CBA5",
"yX c #49D3A7",
"uX c #56D3A4",
"iX c #53D7AB",
"pX c #50CFB0",
"aX c #4DD7B4",
"sX c #58DCB6",
"dX c #61C9AD",
"fX c #61DDAF",
"gX c #63DBB5",
"hX c #4BE2AD",
"jX c #56E1B7",
"kX c #4EE6BB",
"lX c #5DE8C3",
"zX c #68FBCA",
"xX c #6FF3D1",
"cX c #74FFF0",
/* pixels */
"z ,.#.h.w.$., 7 g.V ^ B.C.5X'.a.9XyXG N.dXx.>.u.r.u.0 iXxXg 9 D.",
"r 0.K.' y.K 3 $.~.C X.:.a.'.a.5XyXl.9 <XXXx.).Y.Q.L.u.jXhXo.g -.",
"* w.^.x qX-.s.z.t.J.U.fXgX8X[.hXyXJ 7 ,.w.`.p.i.T.=X%X'.qX/ b ;.",
"g i.;X%XD.k.4 <.r..Xy.6XiX5XiX>.%.-.U W R.Y.p.u W.OX0.^ $.} o.N ",
"# r.0.n = - 9 q.F `.i./.'.8.8.{ 7.W.`.m . m Y.Q.7Xs d rX8.+ z X.",
"$ V ; + z *.! s.q.{.7X].^ s G 7.W.Y.`.' X ; y.;X8X8 - =.g.| o.R.",
"m s , 6 }.yXR M._.*XuXuX8.b.hXc.:.c.(.O.^ ` $.o.3._ k.4 Q } q.r.",
"^.2.#XpXD.L ) 1.^ s %.V.8.L b.u. .eX{._ v.5.5 - G E : h 5 s.1XL.",
"K.s.P s.#.X.^ 8.x.rXwX! 6.[ ;.b./ X.] 7XhXz.: : H 3.U Y =.h.r X.",
"S.P : W c o.,.,.8.x.2XM.6.6.%.+XXXy.Q.fXyXB.! ~ ) Q.>.2.<XOXc  .",
"k.z 6 h ^ v K c K.b.,.H.)./.].%X*XtXQ.'.kXjX#.<.t.0.t.t.t.L.2.#.",
"g 1 k z O.,.;.O.).h.+.m V a J.!.tX=X:.iXcX6X/.J.L.*X*XOXt.i.oXd.",
"1 7 Z X.~ I n ( N 7 .XG.O ( ^.@X4XoX3.zXaX_ x.L.(.].%XW.(.|.>X$.",
": } E.: 4 ( a & m p I. .U r ' !.5X1._ iX` =.L t u.@Xh.i._.qXF.s.",
": m.j.# r i.y C t.g.n 7 b.K.C T.!.3.+Xg.w.'.Q.a `.7X.X.XrXaXd...",
"3  .m.N x e.O v ,.m $ y S j.,.=Xc.c._ a :.x.x.>.=XQ.XX*XsXwXz = ",
"3 W s.H.O.U.v = ..r.t N r  .: C.OX7XF.` v.l.=.7X&X*XoX7 4XF.4 6 ",
"} s.@.X.e.L.] ( W } z n +.H.#.x.w.7XV.;.<Xc.|.;X@X#.Y M.v.! &.v ",
"w X.O t o.L.' @.j ..+.F X.>X+X2.b.v.,.$.dXm.-X7XL U -.L , p a u ",
"& & 0.1.*.P.(.h.7 7 D r.o.c.v ' rXS.: ! ^.8.a.y.6.U _ 1.2 = 9 V ",
"z r m.g.c ..}.g.b N m z 1 0.~.,XF.J ~ | z OX3.M 8X8 6 5.z < ;.X.",
"@.u I.XXj.> z ' X.n w.v ^.K.Z.wX) Y k.P.' (.8 /.@X7./ [ &.8 *.<.",
"P.Z ~.>Xs.k b / v +.@.J.q.- Z.}.z R $.J.O.3.8.[ { 6./ 9 #.n W.n.",
"o.j Z.,X*.k l <.0.9.+. Xr + | h.c 8 7 ' $.2.XXt.< B.l.s V.U x _ ",
"n W.#X$X&.h l x r I.U.R.w.+ = r 7 < + 8 o.{.%X:Xa.[ 6.d [ 7.o.$ ",
"I OXA.,X} > b n g.,XR.* +.a + n 9 b , X ` C.{.;X0Xp.6.B.$.-.#X%X",
"g ) ,.}.k h / 2 1 g Z x $ A p / $.} z  .H a.{.{.`.0XuXkX..r | g.",
"1 8 ' |.}.f.# # . * & q A i h.k.( ! / 8.[ ] {.p.{.[.] 7X} , b f.",
"j n.B q V V $ , q * 6 ^ D a.C.+Xj E -.J eXrX(.=XdX|.; !.=.n c o.",
"g g.S.s.* q j.j x X.b I.Q.8.%.5X7.T B.v.D.sX(.N.@X'.d ` 5./ U P ",
"b ,.-.x.% ;.W r V W.U W.@XoX$.5XzXB.T 2XB.1.OXoXn.3.; L 5.P 7.| ",
"&.b.1.@.r g.r % c I.n 4.yX6XV.8.zXyXR H c.(.*.c.|.0 o 8XlX4 ~ l."
};
