/* XPM */
static char *player21679998173[] = {
/* columns rows colors chars-per-pixel */
"32 32 224 2 ",
"   c #BCB5A5",
".  c #BCB6A8",
"X  c #BBB6A7",
"o  c #BCB7A8",
"O  c #BDB8AA",
"+  c #C0BBAD",
"@  c #BCB5A6",
"#  c #BAB1A0",
"$  c #B6AC99",
"%  c #BFB7A6",
"&  c #C5BFB1",
"*  c #C4BFB2",
"=  c #BEBAAD",
"-  c #B6B0A2",
";  c #BBB3A2",
":  c #C1BAAA",
">  c #C0B9AA",
",  c #BCB5A4",
"<  c #BFB8A7",
"1  c #C2BBAB",
"2  c #BEB6A6",
"3  c #C3BCAB",
"4  c #C3BEAF",
"5  c #C7C2B4",
"6  c #C5C1B4",
"7  c #C4C0B2",
"8  c #C0BAAB",
"9  c #C2BBAC",
"0  c #C3BDAE",
"q  c #BDB7A7",
"w  c #C0BAAC",
"e  c #BBB5A6",
"r  c #BAB2A1",
"t  c #BEB8A8",
"y  c #BCB7A9",
"u  c #BAB4A6",
"i  c #BAB5A6",
"p  c #BAB4A5",
"a  c #B9B09E",
"s  c #B8AD99",
"d  c #B6AD9C",
"f  c #B8AF9E",
"g  c #B7B0A0",
"h  c #BBB4A5",
"j  c #B6AE9E",
"k  c #BDB6A6",
"l  c #BFB8A9",
"z  c #C4BFB0",
"x  c #C3BBAC",
"c  c #BDB4A3",
"v  c #543D28",
"b  c #C0B7A6",
"n  c #C6BFAF",
"m  c #C7C2B6",
"M  c #C9C5B9",
"N  c #C8C4B7",
"B  c #C4BEB0",
"V  c #C1BBAC",
"C  c #C0BAAE",
"Z  c #BAB6A8",
"A  c #C1BBAD",
"S  c #BBB6A8",
"D  c #BEB8A9",
"F  c #BDB7A9",
"G  c #B8B2A3",
"H  c #B6AF9F",
"J  c #B7AC99",
"K  c #BBB2A0",
"L  c #B9B2A1",
"P  c #B9B09F",
"I  c #C2BDAE",
"U  c #513A25",
"Y  c #C2BCAD",
"T  c #C8C3B6",
"R  c #C9C4B8",
"E  c #BFB9AA",
"W  c #C2BCAE",
"Q  c #C1BCAE",
"!  c #B9B4A6",
"~  c #BEB9AC",
"^  c #BDB6A8",
"/  c #C1BCAD",
"(  c #C1BCAF",
")  c #BDB8A9",
"_  c #BDB6A7",
"`  c #B8AD9A",
"'  c #B9B19F",
"]  c #B7AE9C",
"[  c #C6C1B2",
"{  c #BDB7A8",
"}  c #BFBAAD",
"|  c #BDB9AC",
" . c #BFBAAC",
".. c #C4BFB3",
"X. c #BEB7A7",
"o. c #BEB8AB",
"O. c #BBB5A7",
"+. c #BFB6A5",
"@. c #C3BEB0",
"#. c #473524",
"$. c #EABA8D",
"%. c #BFB8A8",
"&. c #BEB7A8",
"*. c #C6C1B4",
"=. c #BFBCB0",
"-. c #BFBAAE",
";. c #C0BCB0",
":. c #BEB8AA",
">. c #BEBAAC",
",. c #BEB9AB",
"<. c #C0B8A6",
"1. c #BDB6A5",
"2. c #BCB3A2",
"3. c #C0B8A7",
"4. c #C0BCAF",
"5. c #C5956E",
"6. c #DDAF84",
"7. c #333231",
"8. c #BEB5A5",
"9. c #C3BDAF",
"0. c #C1BDB1",
"q. c #BCB7AA",
"w. c #BCB6A7",
"e. c #AC6D51",
"r. c #F2C59B",
"t. c #C6C2B5",
"y. c #C7C3B6",
"u. c #C2BCAF",
"i. c #C8C4B8",
"p. c #C8C3B5",
"a. c #C3BEB1",
"s. c #C5C0B3",
"d. c #C8C5B9",
"f. c #AE7C60",
"g. c #C5C1B3",
"h. c #C0BAAA",
"j. c #CCC8BC",
"k. c #C3BDAD",
"l. c #C5986E",
"z. c #C5C1B5",
"x. c #C4C0B4",
"c. c #C3BFB2",
"v. c #C6C1B3",
"b. c #C3BFB1",
"n. c #C8C4B6",
"m. c #C7C5BB",
"M. c #BFB6A4",
"N. c #C5C2B6",
"B. c #C4C1B7",
"V. c #C4BCAC",
"C. c #C9C4B7",
"Z. c #C3BFB3",
"A. c #C4C1B6",
"S. c #C0BBAB",
"D. c #C5C0B1",
"F. c #C9C5B8",
"G. c #C2BDAF",
"H. c #C6C0B2",
"J. c #C7C3B5",
"K. c #C6C2B6",
"L. c #BFB9AB",
"P. c #BEB9AD",
"I. c #C8C5BA",
"U. c #C5C0B4",
"Y. c #C4C0B5",
"T. c #C1BDAF",
"R. c #353C5E",
"E. c #CAC6BA",
"W. c #C0B9A9",
"Q. c #BFBBAF",
"!. c #C4C0B3",
"~. c #384067",
"^. c #2C3353",
"/. c #CBC7BB",
"(. c #BDB4A2",
"). c #C1B9A9",
"_. c #BEB7A6",
"`. c #C1BEB1",
"'. c #C1BDB0",
"]. c #BDB5A3",
"[. c #BCB3A0",
"{. c #BDB5A5",
"}. c #C1BAAB",
"|. c #BFB7A8",
" X c #BFB9A9",
".X c #BAB2A2",
"XX c #BDB8AB",
"oX c #BBB4A6",
"OX c #BEB6A5",
"+X c #BDB3A1",
"@X c #BCB2A0",
"#X c #BCB3A1",
"$X c #BBB29F",
"%X c #BCB4A3",
"&X c #CBC7BA",
"*X c #C4BFB1",
"=X c #C4BDAD",
"-X c #C2BAAB",
";X c #C2BAA8",
":X c #C0B7A5",
">X c #C1B9A8",
",X c #BAB09D",
"<X c #BCB2A1",
"1X c #C4BEAF",
"2X c #C1BBAB",
"3X c #C2BCAC",
"4X c #BAB09E",
"5X c #BFB7A7",
"6X c #C5BFB0",
"7X c #C3BCAC",
"8X c gray22",
"9X c #BEB4A2",
"0X c #C0B9A8",
"qX c #B7AF9E",
"wX c #B9B4A5",
"eX c #C0BBAC",
"rX c #BBB4A3",
"tX c #B9AF9D",
"yX c #C0B7A4",
"uX c #C4BEAE",
"iX c #BEB9AA",
"pX c #B8B1A3",
"aX c #BBB4A4",
"sX c #B6AE9D",
/* pixels */
"  . X o O + @ # $ % & * = - ; : > , < 1 2 3 4 5 6 7 8 9 0 q w e ",
"r t y u e i p a s d f g h j k l z x c v b n 4 m M N B V X o C Z ",
"A y S D F G q H J a K L t P c   V I v U < Y & T R 5 E W t Q = ! ",
"~ u ^ / ( ) _ p ` ' ] U U U v U v U U v U v U & 5 [ E Y { } |  .",
"..{ X.o.w O.D w +.@.U U #.$.$.$.$.$.$.$.$.$.#.U %.< &.  2 *.=.-.",
";.:.^ >.i Q ~ ,.q t #.#.$.$.$.$.$.$.$.$.$.$.$.#.<.1.  2.3.9 4.6 ",
"4.:.u y X 4.5.5.5.5.#.6.$.$.7.$.$.$.$.$.$.7.$.5.5.5.5.8.: 9.| 0.",
"= q.w.. 5.5.$.$.$.$.#.6.6.$.$.$.e.e.e.e.$.$.$.r.r.r.r.5.5.5 t.y.",
"* u.8 5.$.$.$.$.$.$.$.5.5.5.5.6.6.6.6.6.6.5.5.r.r.r.$.r.$.5.i.N ",
"p.a.X.5.6.6.6.$.$.$.$.$.$.$.$.5.5.5.6.5.5.$.$.$.$.r.$.r.$.5.s.d.",
"@.% , $.$.6.f.6.$.$.r.$.r.r.$.$.6.5.6.5.6.$.r.r.$.$.$.r.r.$.5.g.",
"& : 5.6.$.$.$.f.$.$.$.$.$.$.$.$.$.$.5.$.$.$.$.$.$.$.f.5.$.$.5.N ",
"7 h.5.$.$.$.5.f.$.$.$.$.$.$.$.$.$.$.$.$.$.$.$.$.$.f.f.$.$.6.5.j.",
"a.k.5.6.$.$.f.f.5.$.$.$.$.$.$.$.$.6.l.6.$.$.$.$.6.f.f.6.6.6.5.z.",
"s.x.5.6.6.$.f.f.5.6.$.$.$.$.$.$.$.6.6.6.$.$.$.$.6.f.f.6.5.5.5.c.",
"v.5.6.6.5.$.f.f.f.5.6.$.e.$.$.$.6.6.5.6.6.$.$.e.5.f.f.5.5.6.5.b.",
"n.5.$.$.5.$.f.m.f.f.5.6.6.6.6.5.5.5.f.5.5.6.6.5.f.M.f.5.6.6.5.v.",
"t.5.$.$.$.f.N.B.f.f.f.f.5.5.5.5.f.f.6.f.f.5.f.f.V.> f.5.6.$.5.C.",
"y.5.$.$.$.5.Z.A.f.f.$.$.5.$.5.f.$.f.5.5.$.5.S.% D.A f.6.$.$.5.F.",
";.5.$.$.$.5.m s.f.$.$.$.$.$.$.$.5.$.$.$.$.5.G.9 & Q 5.$.$.$.5.*.",
">.5.$.$.5.$.5.G.f.$.$.5.$.$.$.$.f.$.$.$.5.H.I 1 5 D 5.$.$.$.5.Y ",
"J.K.5.$.$.$.5._ f.5.$.$.5.$.5.f.$.f.5.$.5.g.@.Y V 5.$.5.$.5.V L.",
"P.I.5.$.$.$.5.h.f.f.5.$.$.$.$.$.$.$.$.$.5.N U.h.X.5.$.$.$.5.Y @.",
") Y.5.5.5.5.T.* R.R.R.R.R.R.R.R.R.R.R.R.R.E.i.W.c 5.$.$.$.5.E p ",
"1.s. .O.z.Q.* !.~.^.~.~.~.~.~.~.~.R.~.~.^./.M [ W.(.5.5.5.5.y p ",
"k ).X._.9.!.i.`.^.~.~.R.R.R.R.R.R.R.R.~.~.^./.B Y %.k   < > '.p ",
"].[.P {.&.}.F.~.~.~.R.R.k._ % {.k |.R.R.R.~.E.7 V  X%..X: t XXoX",
"OXW.+X@X#X+.*.R.R.R.R.R.H.E r $X# %XR.R.R.R.&X*X@.=X=X-XW.{ p E ",
"< D ;X.X:X>X4 R.R.R.R.*XG.F OX,X<X3.9 R.R.R.N *.7 9.z W W. Xh   ",
"OX1X%.$X% 2Xt l.l.].3XB + + q 4X%X5Xl 2Xl.l.B 6X9.6XB / I W @.r ",
"; 9 7X< V / E 8X8X9X0X+ XXO p 2.>X< 9 9 8X8X8Xv.*.*.w V Y b.~ qX",
"a _ wX%.X eXrX; tXyXuXE iXpXaXOX: %.W.2 (.3.1X*XC.*.D 3X+ w E sX"
};
