/* XPM */
static char *brickxpm1679997061[] = {
/* columns rows colors chars-per-pixel */
"32 32 29 1 ",
"  c #1C1B1F",
". c #1E1D20",
"X c #211E22",
"o c #242225",
"O c #262429",
"+ c #29262B",
"@ c #2C292E",
"# c #2E2C32",
"$ c #312E33",
"% c #343136",
"& c #383335",
"* c #36333A",
"= c #39363C",
"- c #3C383E",
"; c #403A3D",
": c #3D3A41",
"> c #3F3E49",
", c #413D43",
"< c #423F49",
"1 c #454046",
"2 c #4A4246",
"3 c #46424A",
"4 c #4A454C",
"5 c #4E484E",
"6 c #51494E",
"7 c #4B4750",
"8 c #4E4951",
"9 c #524C53",
"0 c #575057",
/* pixels */
"==:-,:===-*331:=:=***:*****----#",
"=**:====--*13==-::=:%**=-*$%=,-@",
"==*==-=-**%3:::131::%**=*%$-*;:+",
":---==:=-*%::*:>:=:=%%**##***-:@",
"::,::=:-=%#**-**=:=:$%*=$$$&=-,#",
",:===-:-:*#=***--:::##*%$$$$$=-#",
"==::%==%%%#=##$%#%*%##%#$$$#&-&+",
"@++O+OOXooOo... .XXX.OOoXXXXoooX",
"--=-&-=**-*%##@.$%&*;;-=**$*$*-=",
":,,:=,:=*===$#O.$$=;==,,*$$%$$==",
"441,-,>:=%=%$#@X@$,,:=,--&@%$&;,",
"5086,:>:*%=##@+ @&&,,,-,*-$%$&,2",
"6988::>*=%%$##+ +$;,,,:;,=#=%*,4",
"4549,>::*%*%&*$.@&,,,,,<,=$%%=,<",
",243:::*$%%:-=%o$&&=-,2<-%&%$&;,",
"#&%&$%+Oooo+O+o XXXXo#$@+@@+o+++",
"7990773:==%-::*%$$#$*,<::,:,:,,$",
"78993>:::=$==:*%$$$$$:,:::=:,,:$",
"<4083>:,:*@-:==*$$$&$*:::::,<<,#",
"3477>>,,,,*,,:=$$$%$$$%$$*:,,::@",
",355>::<,,*,::*-*%%=$$$$$;<4<,,@",
"3598::::,-$:=::-===&$$$$$&,,,,=@",
",45<::::,=$=-,=*%==;#@@$$;,,,,-@",
"-$#$+o++@+#++@OoX@++X+XXoXoX+@@o",
"4<37::*:,:,,,2>%<,:-==*$;;$,,,<4",
"223<%*::;,5565:#::,:::*$&&&,,,,<",
"3<::%=,,,49997>+=,,::=*%;,&<,:,,",
":::,*,23454744:+,,,:=:*#%%%,,,=,",
"-::,%:458737773#2,,::*$$&%$:,:=:",
":::=%:<33343373#,::*=%$%*%$:::==",
";:*=%*,,::>:,:>#:::%**==&;$===*=",
"ooo+o#+++++#@#@.@OOoXX+XXXX++++X"
};
