/* XPM */
static char *wall1678876125[] = {
/* columns rows colors chars-per-pixel */
"32 32 73 1 ",
"  c #68614F",
". c #6B6452",
"X c #6F6856",
"o c #716955",
"O c #746C59",
"+ c #78705D",
"@ c #7E7E7D",
"# c #807762",
"$ c #867D68",
"% c #92886F",
"& c #868277",
"* c #8C8675",
"= c #85827A",
"- c #8A867B",
"; c #8D897E",
": c #948B73",
"> c #9A8F74",
", c #928D7D",
"< c #9E957D",
"1 c #848382",
"2 c #888785",
"3 c #8E8B80",
"4 c #8D8C8A",
"5 c #928E82",
"6 c #959083",
"7 c #9A9585",
"8 c #92918C",
"9 c #9A968A",
"0 c #9E998A",
"q c #969492",
"w c #999795",
"e c #9A9996",
"r c #9E9D9A",
"t c #A19C8D",
"y c #A29F93",
"u c #A09F9C",
"i c #A6A08F",
"p c #A5A196",
"a c #A5A29A",
"s c #A8A59B",
"d c #A2A4AB",
"f c #A6A8AF",
"g c #ABACB2",
"h c #AFB0B7",
"j c #AEB0B8",
"k c #B2B2B3",
"l c #B4B5BB",
"z c #B7B8BD",
"x c #B9BABD",
"c c #C0BFBE",
"v c #C8C4BB",
"b c #B7B9C0",
"n c #BCBDC2",
"m c #BFC0C5",
"M c #C2C2C5",
"N c #C9C7C4",
"B c #CBC9C6",
"V c #C4C5CA",
"C c #C7C8CD",
"Z c #C9CACE",
"A c #D1CFCB",
"S c #D3D1CE",
"D c #CCCDD2",
"F c #CFD0D4",
"G c #D2D2D5",
"H c #D8D6D2",
"J c #D5D6D9",
"K c #D7D8DC",
"L c #DADADE",
"P c #DDDEE1",
"I c #DFE0E3",
"U c #E1E2E5",
"Y c #E7E7EA",
/* pixels */
"vSHkBxvBBB+NSSSAHSCHd7SHvHCSNSHp",
"SIUDVPUDDMXZGLGlKJLFe3UKVKZPkVx7",
"BDLGKPLJDD.gUZLJJlGV43IKFGJDDKD6",
"HDPDKDPLJFXCLGGPhGLM46mPVVFLGJI6",
"HVPVPVUCJmXmJKFJGLPIwrZDbZCDLJG0",
"HPPLDFJPIV mLLZnDVPn4pUFJVDVLZGt",
"ZUPDVJPUJFXmJPKVDVGJesmKPDDJGDJ6",
"HLPLPJFVDF ZJZJmnGDFrpPPPPVLjbD0",
"HVLZDGGgCG dFFIDGJFIepJZJJGVJmF0",
"SZCGGZMnFV mZGDmGnJJerJlzJDZZMZ7",
"$OoXoXoooX>o .X.... .:. .....OO>",
"kVCxVCVmxM.kmVZmlZkn8ybgzMZZmlm6",
"HGPPLGJLUD AIJJZnPIJw9JVFJPJPKb,",
"SLJFJFPIGm VzLGJmJJJr5DPPPGDPLK9",
"vUMVPIPDKn VCLZDFJYZe3FVJDPzLUJ9",
"SGFPPVKDLZ.CIVIZCFPG1-JDJlLVDZZt",
"ZVJPKJPlPD.xVDIJfnYFe-KKKJPCPDG8",
"HDCPKPJnVM.nGnDZjGJDw=PJZPImDJFt",
"GLJDVnJJLV MFJZVCDdD@-bVJJZmJDP9",
"HLZlJmPDKVXVDKVJPGVFe3MZJZPPJKK0",
"swwwaweqwq.4wqqwqquu=3r14qurruw*",
"9;555;=33-:55;80rasa;7;-&-;psy97",
"MnUUDLZJJG.VbLJJIIPJu6YKJPLUJGV9",
"APJUVPDPGZ.CJLPJDbZPr;LLJJLFGLD9",
"SLJPIVDnVC CDzJLnZPP16KLLPJVmJKy",
"NVUPLPnDKG.SGzZFZmPIu0DDKFPPDJPt",
"ADIPDUUPZGXCDZnLGVJD4aKJDJVmPLG0",
"BPDLFVPJGC MFLUDDPPnasUGZDZbLKZ0",
"NFFJPJPPJF.VVVVVPnGDreUULCJKGGP5",
"SDFDPJPJGC.VDmlKDDmP88UVZLLZFbM7",
"AJJJPFPPZZoVDbPPLDDPw3LGJULLLFDt",
"t7,*t697p7%609977559>7t9tttt666<"
};
